# xmcd
#
# Track frame offsets: 
#        150
#        14434
#        25472
#        38692
#        53432
#        66082
#        80300
#        93775
#        106595
#        120047
#        134642
#        147537
#        166190
#        181242
#        194280
#        208532
#        223292
#        237527
#        253502
#        266260
#        280147
#        293015
#        305250
#        320037
#
# Disc length: 4417 seconds
#
# Revision: 2
# Processed by: cddbd v1.5.2PL0 Copyright (c) Steve Scherf et al.
# Submitted via: ExactAudioCopy v1.0b3
#
DISCID=4f113f18
DTITLE=Various Artist - Flashbacks - Heratbreakers - Blue and Lonely192
DTITLE=7-1946
DYEAR=2000
DGENRE=Swing
TTITLE0=Libby Holman - Am I Blue?
TTITLE1=The Ink Spots - Whoa Babe!
TTITLE2=Sister O.M.Terrell - The Gambling Man
TTITLE3=The Ink Spots and Ella Fitzgerald - I'm Making Believe
TTITLE4=Bill 'Jazz' Gillum - Go Back To The Country
TTITLE5=Dinah Shore - Blues In The Night
TTITLE6=Boswell Sisters - Lawd, You Made The Night Too Long
TTITLE7=Kansas City Kitty and Georgia Tom - How Can You Have The Blues?
TTITLE8=Bessie Smith - Nobody Knows You When You're Down and Out
TTITLE9=Mezz Mezzrow - Blues In Disguise
TTITLE10=Lee Morse and Her Blue Grass Boys - Moanin' Low
TTITLE11=Edmond Hall Celeste Quartet feat. C. Christian - Profundly Bl
TTITLE11=ue
TTITLE12=O'Neil Spencer - Sweet Patootie
TTITLE13=Tampa Red - Denver Blues
TTITLE14=Blind Willie Johnson - If I Had My Way
TTITLE15=Berha 'Chippie' Hill - Some Cold Rainy Day
TTITLE16=Duke Ellington and his Orchestra - Mood Indigo
TTITLE17=Issie Ringold - Be On Your Merry Way
TTITLE18=Ma Rainey - Daddy Goodbye Blues
TTITLE19=Mildred Bailey - Smoke Dreams
TTITLE20=Benny Goodman's Boys - Blue (& Broken Hearted)
TTITLE21=Memphis Jug Band - Oh Ambulance Man
TTITLE22=Greta Keller - Blue Moon
TTITLE23=Walter Huston - September Song
EXTD=
EXTT0=
EXTT1=
EXTT2=
EXTT3=
EXTT4=
EXTT5=
EXTT6=
EXTT7=
EXTT8=
EXTT9=
EXTT10=
EXTT11=
EXTT12=
EXTT13=
EXTT14=
EXTT15=
EXTT16=
EXTT17=
EXTT18=
EXTT19=
EXTT20=
EXTT21=
EXTT22=
EXTT23=
PLAYORDER=
